# xmcd CD database file
#
# Track frame offsets:
#	150
#	35105
#	66066
#	85016
#	105364
#	125375
#	155655
#	180722
#	195706
#	212978
#	233832
#
# Disc length: 3454 seconds
#
# Revision: 0
# Processed by: cddbd v1.5.2PL0 Copyright (c) Steve Scherf et al.
# Submitted via: CDex 1.51
#
DISCID=940d7c0b
DTITLE=Peter Weniger - tiptap
DYEAR=1995
DGENRE=Jazz
TTITLE0=Monx-"A" Train
TTITLE1=Remembering
TTITLE2=Tip Tap
TTITLE3=More Than You Know
TTITLE4=Garrigue - What Is This Thing Called Love
TTITLE5=Rosemary's Baby
TTITLE6=The Nail
TTITLE7=I Have A Love
TTITLE8=Solar - Nuclear
TTITLE9=Love Song
TTITLE10=You Can Fly
EXTD=YEAR: 1995
EXTT0=
EXTT1=
EXTT2=
EXTT3=
EXTT4=
EXTT5=
EXTT6=
EXTT7=
EXTT8=
EXTT9=
EXTT10=
PLAYORDER=
